<svg id="Component_37_1" data-name="Component 37 – 1" xmlns="http://www.w3.org/2000/svg" width="40" height="54.894" viewBox="0 0 40 54.894">
  <text id="plans" transform="translate(0 51.894)" fill="#f4f8fc" font-size="12" font-family="WorkSans-Medium, Work Sans" font-weight="500"><tspan x="0" y="0">PLANS</tspan></text>
  <g id="Group_144" data-name="Group 144" transform="translate(3.898)">
    <path id="Path_89" data-name="Path 89" d="M0,0V32.216H31.724V0ZM15.691,30.372H1.632V1.83H15.685V30.372Zm1.721-12.161V17.3h5.114v.915ZM22.52,8.952H17.412V8.174h5.114v.778Zm0,1.045v.785H17.412V10Zm0,1.823V12.6H17.412V11.82Zm0,1.823v.778H17.412v-.778Zm0,1.823v.778H17.412v-.778ZM29.7,30.372H17.412V19.563H29.7Zm0-12.161H24.241V6.145H17.453V1.919H29.7Z" fill="#aaa"/>
  </g>
</svg>
