<svg id="Component_38_1" data-name="Component 38 – 1" xmlns="http://www.w3.org/2000/svg" width="70" height="55.978" viewBox="0 0 70 55.978">
  <text id="technique" transform="translate(0 52.978)" fill="#f4f8fc" font-size="12" font-family="WorkSans-Medium, Work Sans" font-weight="500"><tspan x="0" y="0">TECHNIQUE</tspan></text>
  <g id="Group_377" data-name="Group 377" transform="translate(-549.084 -524.258)">
    <path id="Path_391" data-name="Path 391" d="M596.072,547.613a5.391,5.391,0,0,1,1.288,5.492l-2.441-2.305c-2.17-2.17-5.56,1.22-3.39,3.39l2.373,2.373a5.223,5.223,0,0,1-5.492-1.288,5.462,5.462,0,0,1-1.153-5.967L572.612,534.6a5.39,5.39,0,0,1-7.255-6.645l2.848,2.848,2.983-.407.407-2.983-2.848-2.848a5.223,5.223,0,0,1,5.492,1.288,5.462,5.462,0,0,1,1.153,5.967l14.713,14.713A5.44,5.44,0,0,1,596.072,547.613Z" fill="#aaa"/>
  </g>
</svg>
