<svg id="Component_41_1" data-name="Component 41 – 1" xmlns="http://www.w3.org/2000/svg" width="93" height="58.064" viewBox="0 0 93 58.064">
  <text id="notre_agence" data-name="notre agence" transform="translate(0 55.064)" fill="#f4f8fc" font-size="12" font-family="WorkSans-Medium, Work Sans" font-weight="500"><tspan x="0" y="0">NOTRE AGENCE</tspan></text>
  <g id="Group_376" data-name="Group 376" transform="translate(-532.087 -464.304)">
    <path id="Path_388" data-name="Path 388" d="M578.119,500.368a18.032,18.032,0,1,1,18.032-18.032A18.053,18.053,0,0,1,578.119,500.368Zm0-33.45a15.417,15.417,0,1,0,15.42,15.417A15.435,15.435,0,0,0,578.119,466.919Z" fill="#aaa"/>
    <path id="Path_389" data-name="Path 389" d="M576.913,490.3c-.139-.053-.289-.139-.289-.5a2.223,2.223,0,0,1,.077-.535l2.278-11.041a4.107,4.107,0,0,0,.078-.8,1.986,1.986,0,0,0-.655-1.616c-.973-.8-2.674-.642-5.505.314l-.274.092-.113,1.425h.476a5.74,5.74,0,0,1,1.861.148.24.24,0,0,1,.15.264,1.568,1.568,0,0,1-.034.3c-.029.15-.062.323-.1.511L572.779,489a7.219,7.219,0,0,0-.147,1.3,2.411,2.411,0,0,0,.689,1.854,2.6,2.6,0,0,0,1.821.621,12.642,12.642,0,0,0,3.646-.753l.279-.09.113-1.444h-.474A5.548,5.548,0,0,1,576.913,490.3Z" transform="translate(1.578 1.395)" fill="#aaa"/>
    <path id="Path_390" data-name="Path 390" d="M579.534,470.423a2.3,2.3,0,0,0-1.641-.619,2.322,2.322,0,0,0-2.4,2.439,2.255,2.255,0,0,0,2.317,2.333,2.313,2.313,0,0,0,1.7-.7,2.434,2.434,0,0,0,.683-1.776A2.213,2.213,0,0,0,579.534,470.423Z" transform="translate(1.956 0.699)" fill="#aaa"/>
  </g>
</svg>
