<svg id="Component_36_1" data-name="Component 36 – 1" xmlns="http://www.w3.org/2000/svg" width="49" height="56.894" viewBox="0 0 49 56.894">
  <text id="métrés" transform="translate(0 53.894)" fill="#f4f8fc" font-size="12" font-family="WorkSans-Medium, Work Sans" font-weight="500"><tspan x="0" y="0">MÉTRÉS</tspan></text>
  <g id="Group_142" data-name="Group 142" transform="translate(7)">
    <path id="Path_255" data-name="Path 255" d="M31.147,5.937,26.127.917,25.222,0,24.3.917.912,24.3,0,25.216l.912.917,5.02,5.02.917.912.912-.912L31.147,7.766l.917-.917Zm-24.3,24.3-5.02-5.014L3.285,23.76l2.1,2.107.574-.568L3.853,23.186l.734-.74,1.136,1.136L6.3,23,5.167,21.872l.74-.74,2.113,2.107.574-.568L6.487,20.557l.74-.74,1.136,1.131.574-.568L7.807,19.249l.734-.746,2.113,2.113.568-.574L9.116,17.935l.746-.74,1.131,1.131.574-.574-1.131-1.131.74-.74,2.107,2.107.574-.574-2.113-2.107.752-.74,1.125,1.125.574-.568L13.07,13.993l.74-.74,2.107,2.1.568-.574-2.107-2.107.74-.74,1.136,1.131.574-.58L15.7,11.359l.746-.74,2.1,2.113.574-.58-2.107-2.1.746-.764,1.131,1.131.574-.574L18.332,8.713l.746-.74,2.107,2.107.574-.574L19.652,7.4l5.576-5.57,5.008,5.014Z" fill="#f4f8fc"/>
    <path id="Path_256" data-name="Path 256" d="M40.046,11.291a1.848,1.848,0,1,0-.006-2.616A1.86,1.86,0,0,0,40.046,11.291ZM41.97,9.368a.871.871,0,1,1-1.231-.006A.875.875,0,0,1,41.97,9.368Z" transform="translate(-16.121 -3.318)" fill="#f4f8fc"/>
  </g>
</svg>
