<svg id="Component_33_1" data-name="Component 33 – 1" xmlns="http://www.w3.org/2000/svg" width="46.108" height="50.721" viewBox="0 0 46.108 50.721">
  <text id="vidéos" transform="translate(1.108 47.721)" fill="#f4f8fc" font-size="12" font-family="WorkSans-Medium, Work Sans" font-weight="500"><tspan x="0" y="0">VIDÉOS</tspan></text>
  <g id="Group_143" data-name="Group 143" transform="translate(0 -0.007)">
    <g id="Group_6" data-name="Group 6" transform="translate(0 0.007)">
      <path id="Path_87" data-name="Path 87" d="M30.987,18.232v3.4a4.143,4.143,0,0,1-4.314,4.4q-11.155.031-22.317,0A4.112,4.112,0,0,1,.034,21.774C-.028,19.555.021,17.329.021,15.11.014,11.636.027,8.162,0,4.689-.014,2.793.6,1.257,2.4.443A5.132,5.132,0,0,1,4.432.03Q15.524-.012,26.611.016a4.141,4.141,0,0,1,4.425,4.418c.021,1.075,0,2.15,0,3.356.3-.165.51-.269.71-.386l7.2-4.142a3.04,3.04,0,0,1,4.742,2.412,4.443,4.443,0,0,1,.028.524q0,6.834,0,13.667c-.007,1.909-1.089,3.246-2.833,3.322a4.235,4.235,0,0,1-2.054-.524c-2.4-1.3-4.749-2.674-7.12-4.025C31.511,18.514,31.3,18.4,30.987,18.232ZM15.452,24.214H26.473a2.383,2.383,0,0,0,2.688-2.729q-.01-2.243.007-4.487c.007-1.185.634-1.558,1.654-.979q3.608,2.068,7.2,4.149c.627.365,1.241.751,1.888,1.082a1.232,1.232,0,0,0,1.916-1.144c.014-.393,0-.793,0-1.185V6.053A1.384,1.384,0,0,0,41.215,4.7a1.4,1.4,0,0,0-1.544.172q-4.425,2.554-8.856,5.107c-1.013.586-1.647.214-1.654-.972-.007-1.5-.007-2.991-.014-4.487,0-1.757-.848-2.688-2.591-2.695q-11.041-.041-22.1-.007A2.385,2.385,0,0,0,1.813,4.489Q1.8,13,1.819,21.513a2.4,2.4,0,0,0,2.743,2.695Q10.011,24.218,15.452,24.214Z" transform="translate(0 -0.007)" fill="#aaa"/>
    </g>
    <path id="Path_88" data-name="Path 88" d="M26.724,16.454,17.33,11.03V21.878Z" transform="translate(-5.386 -3.426)" fill="#aaa"/>
  </g>
</svg>
