<svg id="Component_40_1" data-name="Component 40 – 1" xmlns="http://www.w3.org/2000/svg" width="93" height="58.064" viewBox="0 0 93 58.064">
  <text id="coordonnées" transform="translate(0 55.064)" fill="#f4f8fc" font-size="12" font-family="WorkSans-Medium, Work Sans" font-weight="500"><tspan x="0" y="0">COORDONNÉES</tspan></text>
  <g id="Group_371" data-name="Group 371" transform="translate(29.25 -0.75)">
    <path id="Path_380" data-name="Path 380" d="M13.013.75A12.266,12.266,0,0,1,23.784,18.878c-.017.041-.037.08-.059.12L13.994,36.261a1.128,1.128,0,0,1-1.964,0L2.289,19a1.147,1.147,0,0,1-.087-.193A12.267,12.267,0,0,1,13.013.75Zm0,2.254a10.012,10.012,0,0,0-8.74,14.89,1.093,1.093,0,0,1,.08.176l8.659,15.344L21.7,18c.016-.036.033-.072.054-.108A10.012,10.012,0,0,0,13.013,3Zm0,4.6a5.41,5.41,0,1,1-5.41,5.41A5.41,5.41,0,0,1,13.013,7.6Zm0,2.254a3.156,3.156,0,1,0,3.156,3.156A3.156,3.156,0,0,0,13.013,9.857Z" fill="#aaa"/>
  </g>
</svg>
