<svg id="Component_35_1" data-name="Component 35 – 1" xmlns="http://www.w3.org/2000/svg" width="107" height="56.894" viewBox="0 0 107 56.894">
  <text id="visite_virtuelle" data-name="visite virtuelle" transform="translate(0 53.894)" fill="#f4f8fc" font-size="12" font-family="WorkSans-Medium, Work Sans" font-weight="500"><tspan x="0" y="0">VISITE VIRTUELLE</tspan></text>
  <g id="Group_154" data-name="Group 154" transform="translate(31)">
    <path id="Path_275" data-name="Path 275" d="M20.08,0A16.345,16.345,0,0,0,3.857,14.993H0l4.713,8.215,4.7-8.215H5.755A14.43,14.43,0,1,1,20.149,30.882v1.9A16.391,16.391,0,0,0,20.08,0Z" fill="#aaa"/>
    <g id="Group_153" data-name="Group 153" transform="translate(10.497 12.996)">
      <path id="Path_276" data-name="Path 276" d="M15.628,15a1.773,1.773,0,0,1-.423,1.2,2.2,2.2,0,0,1-1.19.679v.03a2.366,2.366,0,0,1,1.368.551,1.542,1.542,0,0,1,.462,1.19,2.017,2.017,0,0,1-.787,1.692,3.592,3.592,0,0,1-2.233.6,5.43,5.43,0,0,1-2.155-.4V19.182a5.2,5.2,0,0,0,.954.364,4.141,4.141,0,0,0,1.033.138,2.045,2.045,0,0,0,1.161-.266.985.985,0,0,0,.374-.856.775.775,0,0,0-.433-.748,3.151,3.151,0,0,0-1.368-.226h-.571v-1.22h.58a2.727,2.727,0,0,0,1.269-.226.838.838,0,0,0,.4-.787q0-.856-1.063-.856a2.255,2.255,0,0,0-.748.128,3.563,3.563,0,0,0-.846.423l-.728-1.092a4.053,4.053,0,0,1,2.44-.738,3.11,3.11,0,0,1,1.83.472A1.505,1.505,0,0,1,15.628,15Z" transform="translate(-10.67 -13.21)" fill="#aaa"/>
      <path id="Path_277" data-name="Path 277" d="M16.71,17.647a5.042,5.042,0,0,1,.935-3.325,3.514,3.514,0,0,1,2.814-1.092,5.294,5.294,0,0,1,1,.079v1.269a4.048,4.048,0,0,0-.905-.1,3.05,3.05,0,0,0-1.328.246,1.671,1.671,0,0,0-.767.728,3.361,3.361,0,0,0-.3,1.377h.069a1.76,1.76,0,0,1,1.633-.876,2.011,2.011,0,0,1,1.574.63A2.551,2.551,0,0,1,22,18.336a2.633,2.633,0,0,1-.679,1.909,2.456,2.456,0,0,1-1.869.7,2.691,2.691,0,0,1-1.446-.384,2.476,2.476,0,0,1-.954-1.131A4.226,4.226,0,0,1,16.71,17.647Zm2.706,2.027a.939.939,0,0,0,.777-.344,1.551,1.551,0,0,0,.275-.974,1.354,1.354,0,0,0-.256-.866.931.931,0,0,0-.767-.315,1.161,1.161,0,0,0-.817.315.967.967,0,0,0-.344.728,1.621,1.621,0,0,0,.325,1.033A.957.957,0,0,0,19.416,19.674Z" transform="translate(-10.768 -13.21)" fill="#aaa"/>
      <path id="Path_278" data-name="Path 278" d="M28.034,17.076A5.34,5.34,0,0,1,27.395,20a2.237,2.237,0,0,1-1.977.944,2.185,2.185,0,0,1-1.948-.974,5.142,5.142,0,0,1-.659-2.883,5.332,5.332,0,0,1,.639-2.932,2.208,2.208,0,0,1,1.968-.944,2.2,2.2,0,0,1,1.958.984A5.225,5.225,0,0,1,28.034,17.076Zm-3.66,0a5.958,5.958,0,0,0,.236,1.987.816.816,0,0,0,.8.6.843.843,0,0,0,.8-.61,5.629,5.629,0,0,0,.246-1.977,5.656,5.656,0,0,0-.246-1.987.833.833,0,0,0-.8-.6.816.816,0,0,0-.8.6A6,6,0,0,0,24.374,17.076Z" transform="translate(-10.866 -13.21)" fill="#aaa"/>
      <path id="Path_279" data-name="Path 279" d="M28.98,14.991a1.756,1.756,0,0,1,.236-.885,1.715,1.715,0,0,1,.649-.649,1.774,1.774,0,0,1,.9-.246,1.756,1.756,0,0,1,.885.236,1.715,1.715,0,0,1,.649.649,1.756,1.756,0,0,1,.236.885,1.792,1.792,0,0,1-.236.9,1.715,1.715,0,0,1-.649.649,1.756,1.756,0,0,1-.885.236A1.714,1.714,0,0,1,29.5,16.25,1.671,1.671,0,0,1,28.98,14.991Zm.974,0a.8.8,0,0,0,.226.561.751.751,0,0,0,.561.236.772.772,0,0,0,.571-.236A.75.75,0,0,0,31.538,15a.8.8,0,0,0-.236-.571.776.776,0,0,0-.561-.246.766.766,0,0,0-.561.236A.8.8,0,0,0,29.954,14.991Z" transform="translate(-10.966 -13.21)" fill="#aaa"/>
    </g>
  </g>
</svg>
