<svg id="Component_31_1" data-name="Component 31 – 1" xmlns="http://www.w3.org/2000/svg" width="90" height="59" viewBox="0 0 90 59">
  <text id="Présentation" transform="translate(0 56)" fill="#f4f8fc" font-size="12" font-family="WorkSans-Medium, Work Sans" font-weight="500"><tspan x="0" y="0">PRÉSENTATION</tspan></text>
  <path id="Path_392" data-name="Path 392" d="M623.856,498a2.7,2.7,0,0,1,2.693,2.692v26.925a2.7,2.7,0,0,1-2.693,2.693h-5.384a2.7,2.7,0,0,1-2.693-2.693V500.689A2.7,2.7,0,0,1,618.472,498h5.384m0-2.693h-5.384a5.386,5.386,0,0,0-5.385,5.385v26.925A5.385,5.385,0,0,0,618.472,533h5.384a5.385,5.385,0,0,0,5.385-5.385V500.689A5.386,5.386,0,0,0,623.856,495.3Zm32.311,6.732a1.345,1.345,0,0,0-1.344-1.347H635.974a1.347,1.347,0,0,0,0,2.693h18.848a1.346,1.346,0,0,0,1.345-1.345Zm0,8.077a1.346,1.346,0,0,0-1.344-1.347H635.974a1.347,1.347,0,0,0,0,2.693h18.848a1.346,1.346,0,0,0,1.345-1.345Zm0,8.077a1.344,1.344,0,0,0-1.344-1.346H635.974a1.346,1.346,0,1,0,0,2.692h18.848a1.345,1.345,0,0,0,1.345-1.344Zm0,8.077a1.344,1.344,0,0,0-1.344-1.345H635.974a1.346,1.346,0,1,0,0,2.692h18.848a1.344,1.344,0,0,0,1.345-1.344Z" transform="translate(-589.801 -495.304)" fill="#aaa"/>
</svg>
