<svg id="Component_34_1" data-name="Component 34 – 1" xmlns="http://www.w3.org/2000/svg" width="119" height="59" viewBox="0 0 119 59">
  <text id="Caractéristiques" transform="translate(0 56)" fill="#f4f8fc" font-size="12" font-family="WorkSans-Medium, Work Sans" font-weight="500"><tspan x="0" y="0">CARACTÉRISTIQUES</tspan></text>
  <g id="Group_141" data-name="Group 141" transform="translate(15.99 -3.916)">
    <path id="Path_258" data-name="Path 258" d="M52.614,41.778H23.946V3.916H51.6a2.7,2.7,0,0,1,.334.028L52.614,4Zm-27.471-1.2H51.417V5.1H47.87c-4.952,0-17.792.131-22.744.117V18.271Zm22.881-3.436h-19.5V8.534H48.037V37.146Zm-18.3-1.182H46.827V9.73h-17c-.014,0-.095,8.707-.109,8.707V35.964Z" transform="translate(0 0)" fill="#aaa"/>
    <path id="Path_259" data-name="Path 259" d="M30.293,11.98v2.239H14.77V11.98Z" transform="translate(15.755 6.318)" fill="#aaa"/>
    <path id="Path_260" data-name="Path 260" d="M14.77,16.849V14.61H30.293v2.239Z" transform="translate(15.755 7.347)" fill="#aaa"/>
    <path id="Path_261" data-name="Path 261" d="M30.275,19.489H14.78V17.25h15.5Z" transform="translate(15.759 8.379)" fill="#aaa"/>
    <path id="Path_262" data-name="Path 262" d="M14.77,22.129V19.89H30.293v2.239Z" transform="translate(15.755 9.411)" fill="#aaa"/>
    <path id="Path_263" data-name="Path 263" d="M14.77,24.759V22.52H30.293v2.239Z" transform="translate(15.755 10.439)" fill="#aaa"/>
    <path id="Path_264" data-name="Path 264" d="M33.569,11.579H18.06V9.34H33.569Z" transform="translate(12.479 5.286)" fill="#aaa"/>
    <path id="Path_265" data-name="Path 265" d="M34.559,6.7V8.939H19.05V6.7Z" transform="translate(11.489 4.254)" fill="#aaa"/>
  </g>
</svg>
