<svg xmlns="http://www.w3.org/2000/svg" width="18.478" height="17.649" viewBox="0 0 18.478 17.649">
  <path id="Path_10" data-name="Path 10" d="M243.429,174.916a1.9,1.9,0,0,1-.607,1.467,2.264,2.264,0,0,1-1.629.589h-.024a2.168,2.168,0,0,1-1.587-.589,1.967,1.967,0,0,1-.6-1.467,1.935,1.935,0,0,1,.62-1.472,2.264,2.264,0,0,1,1.616-.583,2.2,2.2,0,0,1,1.6.583,2,2,0,0,1,.611,1.472m-.253,15.591h-3.967V178.594h3.967Zm14.268-6.828v6.828H253.49v-6.372a3.474,3.474,0,0,0-.487-1.977,1.707,1.707,0,0,0-1.52-.716,1.946,1.946,0,0,0-1.268.415,2.558,2.558,0,0,0-.763,1.028,2.9,2.9,0,0,0-.133.974v6.648h-3.955q.023-4.8.025-7.778t-.012-3.558l-.013-.577h3.955v1.731h-.024a5.291,5.291,0,0,1,.492-.673,5.191,5.191,0,0,1,.68-.625,3.1,3.1,0,0,1,1.046-.523,4.754,4.754,0,0,1,1.376-.188,4.272,4.272,0,0,1,3.306,1.364,5.719,5.719,0,0,1,1.249,4Z" transform="translate(-238.981 -172.857)" fill="#26e0e5"/>
</svg>
