<svg xmlns="http://www.w3.org/2000/svg" width="18.942" height="15.382" viewBox="0 0 18.942 15.382">
  <path id="Path_9" data-name="Path 9" d="M195.8,177.526a8.135,8.135,0,0,1-1.947,2.007q.011.169.012.505a11.038,11.038,0,0,1-.456,3.119,11.3,11.3,0,0,1-1.388,2.988,11.735,11.735,0,0,1-2.219,2.53,9.871,9.871,0,0,1-3.1,1.755,11.357,11.357,0,0,1-3.883.655,10.784,10.784,0,0,1-5.962-1.744,8.15,8.15,0,0,0,.938.048,7.6,7.6,0,0,0,4.82-1.658,3.89,3.89,0,0,1-3.63-2.693,4.825,4.825,0,0,0,.734.06,4.03,4.03,0,0,0,1.022-.132,3.815,3.815,0,0,1-2.23-1.34,3.75,3.75,0,0,1-.885-2.47v-.048a3.864,3.864,0,0,0,1.756.493,3.879,3.879,0,0,1-1.262-1.383,3.889,3.889,0,0,1,.059-3.811,11.016,11.016,0,0,0,3.541,2.868,10.812,10.812,0,0,0,4.466,1.2,4.33,4.33,0,0,1-.1-.889,3.887,3.887,0,0,1,6.72-2.657,7.639,7.639,0,0,0,2.465-.937,3.774,3.774,0,0,1-1.707,2.139,7.725,7.725,0,0,0,2.237-.606" transform="translate(-176.858 -175.704)" fill="#26e0e5"/>
</svg>
