<svg xmlns="http://www.w3.org/2000/svg" xmlns:xlink="http://www.w3.org/1999/xlink" width="20.27" height="20.27" viewBox="0 0 20.27 20.27">
  <defs>
    <clipPath id="clip-path">
      <rect id="Rectangle_67" data-name="Rectangle 67" width="20.27" height="20.27" fill="#26e0e5"/>
    </clipPath>
  </defs>
  <g id="Group_897" data-name="Group 897" transform="translate(0 0.001)">
    <g id="Group_896" data-name="Group 896" transform="translate(0 -0.001)" clip-path="url(#clip-path)">
      <path id="Path_449" data-name="Path 449" d="M17.706,16.864a10.108,10.108,0,0,0,.015-13.44.527.527,0,0,0-.064-.075A10.119,10.119,0,0,0,3.366,2.6a10,10,0,0,0-.75.75.437.437,0,0,0-.066.075,10.11,10.11,0,0,0,0,13.423.548.548,0,0,0,.064.075,10.122,10.122,0,0,0,15.044,0,.619.619,0,0,0,.048-.057M.893,10.576H4.848a17.846,17.846,0,0,0,.661,4.537,12.487,12.487,0,0,0-2.49.93A9.2,9.2,0,0,1,.893,10.576M3.019,4.228a12.468,12.468,0,0,0,2.49.93,17.846,17.846,0,0,0-.661,4.537H.882A9.2,9.2,0,0,1,3.019,4.228M19.389,9.695H15.423a17.86,17.86,0,0,0-.661-4.537,12.458,12.458,0,0,0,2.49-.93,9.2,9.2,0,0,1,2.137,5.466M9.695,4.848a17.476,17.476,0,0,1-3.032-.322C7.39,2.558,8.479,1.2,9.695.93Zm-3.3.513a18.447,18.447,0,0,0,3.3.368V9.695H5.729A16.808,16.808,0,0,1,6.39,5.361m3.3,5.215v3.966a18.471,18.471,0,0,0-3.3.361,16.812,16.812,0,0,1-.662-4.327Zm0,4.847v3.918c-1.216-.267-2.3-1.628-3.032-3.589a17.515,17.515,0,0,1,3.032-.328m.881,0a17.474,17.474,0,0,1,3.032.322c-.727,1.961-1.816,3.323-3.032,3.589Zm3.305-.52a18.477,18.477,0,0,0-3.305-.361V10.576h3.966a16.812,16.812,0,0,1-.661,4.334ZM10.576,9.695V5.729a18.449,18.449,0,0,0,3.305-.361,16.8,16.8,0,0,1,.661,4.327Zm0-4.847V.93c1.216.267,2.3,1.628,3.032,3.589a17.448,17.448,0,0,1-3.032.328m3.913-.524A8.72,8.72,0,0,0,12.716,1.25a9.251,9.251,0,0,1,3.915,2.3,11.962,11.962,0,0,1-2.141.764Zm-8.707,0a11.938,11.938,0,0,1-2.141-.764A9.247,9.247,0,0,1,7.555,1.25,8.706,8.706,0,0,0,5.782,4.317Zm0,11.638a8.713,8.713,0,0,0,1.773,3.067,9.247,9.247,0,0,1-3.915-2.309,11.914,11.914,0,0,1,2.141-.764Zm8.707,0a11.962,11.962,0,0,1,2.141.764,9.257,9.257,0,0,1-3.915,2.3,8.724,8.724,0,0,0,1.774-3.067Zm.273-.848a17.86,17.86,0,0,0,.661-4.537h3.966a9.2,9.2,0,0,1-2.137,5.466,12.477,12.477,0,0,0-2.49-.93" transform="translate(0 0)" fill="#26e0e5"/>
    </g>
  </g>
</svg>
